<?xml version="1.0" encoding="UTF-8"?>
<svg xmlns="http://www.w3.org/2000/svg" version="1.1" viewBox="0 0 500 500">
  <defs>
    <style>
      .cls-1 {
        font-size: 16.11px;
      }

      .cls-1, .cls-2, .cls-3 {
        fill: #010101;
      }

      .cls-1, .cls-4, .cls-5 {
        font-family: TimesNewRomanPSMT, 'Times New Roman';
      }

      .cls-6, .cls-7 {
        opacity: 0;
      }

      .cls-6, .cls-7, .cls-8, .cls-9, .cls-10 {
        stroke-miterlimit: 10;
      }

      .cls-6, .cls-7, .cls-9 {
        stroke: #010101;
      }

      .cls-6, .cls-8, .cls-10 {
        fill: none;
      }

      .cls-2 {
        font-family: TimesNewRomanPS-BoldMT, 'Times New Roman';
        font-size: 26.21px;
      }

      .cls-2, .cls-11 {
        font-weight: 700;
      }

      .cls-12 {
        fill: #fff;
      }

      .cls-3 {
        font-family: TimesNewRomanPS-ItalicMT, 'Times New Roman';
      }

      .cls-3, .cls-4, .cls-5, .cls-11 {
        font-size: 13.43px;
      }

      .cls-3, .cls-11 {
        font-style: italic;
      }

      .cls-4 {
        fill: #b4b4b4;
      }

      .cls-7, .cls-9 {
        fill: #2278b5;
      }

      .cls-5, .cls-11 {
        fill: #231f20;
      }

      .cls-13 {
        fill: #3b3c3b;
      }

      .cls-14 {
        fill: #747273;
      }

      .cls-8 {
        stroke: #ed2224;
      }

      .cls-8, .cls-10 {
        stroke-width: 3px;
      }

      .cls-11 {
        font-family: TimesNewRomanPS-BoldItalicMT, 'Times New Roman';
      }

      .cls-9 {
        stroke-width: 2px;
      }

      .cls-10 {
        stroke: #747273;
      }
    </style>
  </defs>
  <!-- Generator: Adobe Illustrator 28.6.0, SVG Export Plug-In . SVG Version: 1.2.0 Build 709)  -->
  <g>
    <g id="Layer_1">
      <text class="cls-4" transform="translate(223.81 188.37)"><tspan x="0" y="0">[CLS]</tspan></text>
      <rect class="cls-14" x="199.72" y="184.65" width="21.39" height="1.07"/>
      <polyline class="cls-14" points="217.97 189.57 217.32 188.78 220.75 185.19 217.32 181.59 217.97 180.8 222.14 185.19 217.97 189.57"/>
      <line class="cls-12" x1="227.67" y1="226.55" x2="227.67" y2="226.55"/>
      <text class="cls-4" transform="translate(235.31 204.35)"><tspan x="0" y="0">The</tspan></text>
      <text class="cls-4" transform="translate(227.93 222.45)"><tspan x="0" y="0">quick</tspan></text>
      <text class="cls-4" transform="translate(239.88 341.14)"><tspan x="0" y="0">dog</tspan></text>
      <rect class="cls-14" x="202.68" y="337.63" width="35.55" height="1.07"/>
      <polyline class="cls-14" points="231.72 342.55 230.99 341.76 234.86 338.16 230.99 334.57 231.72 333.78 236.43 338.16 231.72 342.55"/>
      <text class="cls-4" transform="translate(237.96 324.52)"><tspan x="0" y="0">lazy</tspan></text>
      <rect class="cls-14" x="199.72" y="321" width="33.63" height="1.07"/>
      <polyline class="cls-14" points="229.8 325.92 229.07 325.14 232.94 321.54 229.07 317.94 229.8 317.16 234.51 321.54 229.8 325.92"/>
      <text class="cls-5" transform="translate(243.08 308.22)"><tspan x="0" y="0">the</tspan></text>
      <rect class="cls-14" x="199.72" y="304.71" width="39.38" height="1.07"/>
      <polyline class="cls-14" points="235.55 309.63 234.82 308.85 238.69 305.25 234.82 301.65 235.55 300.87 240.27 305.25 235.55 309.63"/>
      <polygon class="cls-6" points="235.65 306.75 235.65 306.75 235.65 306.75 235.65 306.75 235.65 306.75 235.65 306.75 235.65 306.75 235.65 306.75 235.65 306.75 235.65 306.75 235.65 306.75 235.65 306.75 235.65 306.75 235.65 306.75 235.65 306.75 235.65 306.75 235.65 306.75 235.65 306.75 235.65 306.75 235.65 306.75 235.65 306.75 235.65 306.75 235.65 306.75 235.65 306.75 235.65 306.75 235.65 306.75 235.65 306.75 235.65 306.75 235.65 306.75 235.65 306.75 235.65 306.75 235.65 306.75 235.65 306.75 235.65 306.75 235.65 306.75 235.65 306.75 235.65 306.75 235.65 306.75 235.65 306.75 235.65 306.75 235.65 306.75 235.65 306.75 235.65 306.75 235.65 306.75 235.65 306.75 235.65 306.75 235.65 306.75 235.65 306.75 235.65 306.75 235.65 306.75 235.65 306.75 235.65 306.75 235.65 306.75 235.65 306.75 235.65 306.75 235.65 306.75 235.65 306.75 235.65 306.75 235.65 306.75 235.65 306.75 235.65 306.75 235.65 306.75 235.65 306.75 235.65 306.75 235.65 306.75 235.65 306.75 235.65 306.75 235.65 306.75 235.65 306.75 235.65 306.75 235.65 306.75 235.65 306.75 235.65 306.75 235.65 306.75 235.65 306.75 235.65 306.75 235.65 306.75 235.65 306.75 235.65 306.75 235.65 306.75 235.65 306.75 235.65 306.75 235.65 306.75 235.65 306.75 235.65 306.75 235.65 306.75"/>
      <text class="cls-4" transform="translate(236.05 291.41)"><tspan x="0" y="0">over</tspan></text>
      <polygon class="cls-6" points="224.33 289.51 224.33 289.51 224.33 289.51 224.33 289.51 224.33 289.51 224.33 289.51 224.33 289.51 224.33 289.51 224.33 289.51 224.33 289.51 224.33 289.51 224.33 289.51 224.33 289.51 224.33 289.51 224.33 289.51 224.33 289.51 224.33 289.51 224.33 289.51 224.33 289.51 224.33 289.51 224.33 289.51 224.33 289.51 224.33 289.51 224.33 289.51 224.33 289.51 224.33 289.51 224.33 289.51 224.33 289.51 224.33 289.51 224.33 289.51 224.33 289.51 224.33 289.51 224.33 289.51 224.33 289.51 224.33 289.51 224.33 289.51 224.33 289.51 224.33 289.51 224.33 289.51 224.33 289.51 224.33 289.51 224.33 289.51 224.33 289.51 224.33 289.51 224.33 289.51 224.33 289.51 224.33 289.51 224.33 289.51 224.33 289.51 224.33 289.51 224.33 289.51 224.33 289.51 224.33 289.51 224.33 289.51 224.33 289.51 224.33 289.51 224.33 289.51 224.33 289.51 224.33 289.51 224.33 289.51 224.33 289.51 224.33 289.51 224.33 289.51 224.33 289.51 224.33 289.51 224.33 289.51 224.33 289.51 224.33 289.51 224.33 289.51 224.33 289.51 224.33 289.51 224.33 289.51 224.33 289.51 224.33 289.51 224.33 289.51 224.33 289.51 224.33 289.51 224.33 289.51 224.33 289.51 224.33 289.51 224.33 289.51 224.33 289.51 224.33 289.51 224.33 289.51 224.33 289.51 224.33 289.51 224.33 289.51"/>
      <rect class="cls-14" x="199.72" y="287.89" width="32.35" height="1.07"/>
      <polyline class="cls-14" points="228.52 292.81 227.79 292.03 231.66 288.43 227.79 284.83 228.52 284.05 233.24 288.43 228.52 292.81"/>
      <text class="cls-5" transform="translate(227.52 274.29)"><tspan x="0" y="0">jumps</tspan></text>
      <polygon class="cls-6" points="221.45 272.4 221.45 272.4 221.45 272.4 221.45 272.4 221.45 272.4 221.45 272.4 221.45 272.4 221.45 272.4 221.45 272.4 221.45 272.4 221.45 272.4 221.45 272.4 221.45 272.4 221.45 272.4 221.45 272.4 221.45 272.4 221.45 272.4 221.45 272.4 221.45 272.4 221.45 272.4 221.45 272.4 221.45 272.4 221.45 272.4 221.45 272.4 221.45 272.4 221.45 272.4 221.45 272.4 221.45 272.4 221.45 272.4 221.45 272.4 221.45 272.4 221.45 272.4 221.45 272.4 221.45 272.4 221.45 272.4 221.45 272.4 221.45 272.4 221.45 272.4 221.45 272.4 221.45 272.4 221.45 272.4 221.45 272.4 221.45 272.4 221.45 272.4 221.45 272.4 221.45 272.4 221.45 272.4 221.45 272.4 221.45 272.4 221.45 272.4 221.45 272.4 221.45 272.4 221.45 272.4 221.45 272.4 221.45 272.4 221.45 272.4 221.45 272.4 221.45 272.4 221.45 272.4 221.45 272.4 221.45 272.4 221.45 272.4 221.45 272.4 221.45 272.4 221.45 272.4 221.45 272.4 221.45 272.4 221.45 272.4 221.45 272.4 221.45 272.4 221.45 272.4 221.45 272.4 221.45 272.4 221.45 272.4 221.45 272.4 221.45 272.4 221.45 272.4 221.45 272.4 221.45 272.4 221.45 272.4 221.45 272.4 221.45 272.4 221.45 272.4 221.45 272.4 221.45 272.4 221.45 272.4 221.45 272.4"/>
      <rect class="cls-14" x="199.72" y="270.78" width="23.4" height="1.07"/>
      <polyline class="cls-14" points="219.57 275.7 218.84 274.91 222.71 271.32 218.84 267.72 219.57 266.93 224.29 271.32 219.57 275.7"/>
      <text class="cls-4" transform="translate(241.16 257.24)"><tspan x="0" y="0">fox</tspan></text>
      <polygon class="cls-6" points="228.17 255.35 228.17 255.35 228.17 255.35 228.17 255.35 228.17 255.35 228.17 255.35 228.17 255.35 228.17 255.35 228.17 255.35 228.17 255.35 228.17 255.35 228.17 255.35 228.17 255.35 228.17 255.35 228.17 255.35 228.17 255.35 228.17 255.35 228.17 255.35 228.17 255.35 228.17 255.35 228.17 255.35 228.17 255.35 228.17 255.35 228.17 255.35 228.17 255.35 228.17 255.35 228.17 255.35 228.17 255.35 228.17 255.35 228.17 255.35 228.17 255.35 228.17 255.35 228.17 255.35 228.17 255.35 228.17 255.35 228.17 255.35 228.17 255.35 228.17 255.35 228.17 255.35 228.17 255.35 228.17 255.35 228.17 255.35 228.17 255.35 228.17 255.35 228.17 255.35 228.17 255.35 228.17 255.35 228.17 255.35 228.17 255.35 228.17 255.35 228.17 255.35 228.17 255.35 228.17 255.35 228.17 255.35 228.17 255.35 228.17 255.35 228.17 255.35 228.17 255.35 228.17 255.35 228.17 255.35 228.17 255.35 228.17 255.35 228.17 255.35 228.17 255.35 228.17 255.35 228.17 255.35 228.17 255.35 228.17 255.35 228.17 255.35 228.17 255.35 228.17 255.35 228.17 255.35 228.17 255.35 228.17 255.35 228.17 255.35 228.17 255.35 228.17 255.35 228.17 255.35 228.17 255.35 228.17 255.35 228.17 255.35 228.17 255.35 228.17 255.35 228.17 255.35 228.17 255.35 228.17 255.35 228.17 255.35"/>
      <rect class="cls-14" x="199.08" y="253.73" width="36.83" height="1.07"/>
      <polyline class="cls-14" points="232.36 258.65 231.63 257.87 235.5 254.27 231.63 250.67 232.36 249.89 237.07 254.27 232.36 258.65"/>
      <text class="cls-4" transform="translate(224.54 238.85)"><tspan x="0" y="0">brown</tspan></text>
      <polygon class="cls-6" points="214.74 236.96 214.74 236.96 214.74 236.96 214.74 236.96 214.74 236.96 214.74 236.96 214.74 236.96 214.74 236.96 214.74 236.96 214.74 236.96 214.74 236.96 214.74 236.96 214.74 236.96 214.74 236.96 214.74 236.96 214.74 236.96 214.74 236.96 214.74 236.96 214.74 236.96 214.74 236.96 214.74 236.96 214.74 236.96 214.74 236.96 214.74 236.96 214.74 236.96 214.74 236.96 214.74 236.96 214.74 236.96 214.74 236.96 214.74 236.96 214.74 236.96 214.74 236.96 214.74 236.96 214.74 236.96 214.74 236.96 214.74 236.96 214.74 236.96 214.74 236.96 214.74 236.96 214.74 236.96 214.74 236.96 214.74 236.96 214.74 236.96 214.74 236.96 214.74 236.96 214.74 236.96 214.74 236.96 214.74 236.96 214.74 236.96 214.74 236.96 214.74 236.96 214.74 236.96 214.74 236.96 214.74 236.96 214.74 236.96 214.74 236.96 214.74 236.96 214.74 236.96 214.74 236.96 214.74 236.96 214.74 236.96 214.74 236.96 214.74 236.96 214.74 236.96 214.74 236.96 214.74 236.96 214.74 236.96 214.74 236.96 214.74 236.96 214.74 236.96 214.74 236.96 214.74 236.96 214.74 236.96 214.74 236.96 214.74 236.96 214.74 236.96 214.74 236.96 214.74 236.96 214.74 236.96 214.74 236.96 214.74 236.96 214.74 236.96 214.74 236.96 214.74 236.96 214.74 236.96 214.74 236.96 214.74 236.96"/>
      <rect class="cls-14" x="199.08" y="235.34" width="23.4" height="1.07"/>
      <polyline class="cls-14" points="218.93 240.26 218.2 239.47 222.07 235.88 218.2 232.28 218.93 231.49 223.65 235.88 218.93 240.26"/>
      <rect class="cls-14" x="199.08" y="218.74" width="26.17" height="1.07"/>
      <polyline class="cls-14" points="221.71 223.66 220.97 222.88 224.85 219.28 220.97 215.68 221.71 214.9 226.42 219.28 221.71 223.66"/>
      <rect class="cls-14" x="199.08" y="200.63" width="31.62" height="1.07"/>
      <polyline class="cls-14" points="227.56 205.55 226.91 204.76 230.34 201.17 226.91 197.57 227.56 196.79 231.73 201.17 227.56 205.55"/>
      <text class="cls-5" transform="translate(293.14 206.26)"><tspan x="0" y="0">[CLS]</tspan></text>
      <rect class="cls-14" x="329.15" y="202.55" width="21.39" height="1.07"/>
      <polyline class="cls-14" points="347.4 207.47 346.75 206.68 350.17 203.09 346.75 199.49 347.4 198.7 351.57 203.09 347.4 207.47"/>
      <path class="cls-9" d="M412.79,330.9v-141.3c0-7.63,2.36-13.81,5.27-13.81h5.33c2.91,0,5.27,6.18,5.27,13.81v141.3c0,7.63-2.36,13.8-5.27,13.8h-5.33c-2.91,0-5.27-6.18-5.27-13.8"/>
      <path class="cls-14" d="M406.62,261.33h1.93v-1.07h-1.93v1.07ZM403.72,261.33h1.93v-1.07h-1.93v1.07ZM400.82,261.33h1.93v-1.07h-1.93v1.07Z"/>
      <rect class="cls-14" x="408.7" y="260.26" width="1.78" height="1.07"/>
      <polyline class="cls-14" points="407.53 265.18 406.92 264.39 410.14 260.79 406.92 257.2 407.53 256.41 411.45 260.79 407.53 265.18"/>
      <path class="cls-9" d="M383.96,330.9v-141.3c0-7.63,2.36-13.81,5.27-13.81h5.33c2.91,0,5.27,6.18,5.27,13.81v141.3c0,7.63-2.36,13.8-5.27,13.8h-5.33c-2.91,0-5.27-6.18-5.27-13.8"/>
      <rect class="cls-14" x="373.97" y="260.26" width="7.01" height="1.07"/>
      <polyline class="cls-14" points="378.03 265.18 377.42 264.39 380.64 260.79 377.42 257.2 378.03 256.41 381.94 260.79 378.03 265.18"/>
      <polyline class="cls-9" points="359.64 182.62 359.64 339.1 369.95 290.43 369.95 230.75 359.64 182.62"/>
      <line class="cls-12" x1="322.57" y1="244.45" x2="322.57" y2="244.45"/>
      <text class="cls-5" transform="translate(293.14 222.25)"><tspan x="0" y="0">Never</tspan></text>
      <text class="cls-5" transform="translate(292.79 240.35)"><tspan x="0" y="0">regret</tspan></text>
      <text class="cls-5" transform="translate(292.59 326.12)"><tspan x="0" y="0">smile</tspan></text>
      <rect class="cls-14" x="324.03" y="322.61" width="28.52" height="1.07"/>
      <polyline class="cls-14" points="349 327.53 348.27 326.75 352.14 323.15 348.27 319.55 349 318.77 353.71 323.15 349 327.53"/>
      <text class="cls-11" transform="translate(292.59 309.31)"><tspan x="0" y="0">made</tspan></text>
      <polygon class="cls-6" points="344.8 307.41 344.81 307.41 344.81 307.41 344.81 307.41 344.81 307.41 344.81 307.41 344.81 307.41 344.81 307.41 344.81 307.41 344.81 307.41 344.81 307.41 344.81 307.41 344.81 307.41 344.81 307.41 344.81 307.41 344.81 307.41 344.81 307.41 344.81 307.41 344.81 307.41 344.81 307.41 344.81 307.41 344.81 307.41 344.81 307.41 344.81 307.41 344.81 307.41 344.81 307.41 344.81 307.41 344.81 307.41 344.81 307.41 344.81 307.41 344.81 307.41 344.81 307.41 344.81 307.41 344.81 307.41 344.81 307.41 344.81 307.41 344.81 307.41 344.81 307.41 344.81 307.41 344.81 307.41 344.81 307.41 344.81 307.41 344.81 307.41 344.81 307.41 344.81 307.41 344.81 307.41 344.81 307.41 344.81 307.41 344.81 307.41 344.81 307.41 344.81 307.41 344.81 307.41 344.81 307.41 344.81 307.41 344.81 307.41 344.81 307.41 344.81 307.41 344.81 307.41 344.81 307.41 344.81 307.41 344.81 307.41 344.81 307.41 344.81 307.41 344.81 307.41 344.81 307.41 344.81 307.41 344.81 307.41 344.81 307.41 344.81 307.41 344.81 307.41 344.81 307.41 344.81 307.41 344.81 307.41 344.81 307.41 344.81 307.41 344.81 307.41 344.81 307.41 344.81 307.41 344.81 307.41 344.81 307.41 344.81 307.41 344.81 307.41 344.81 307.41 344.81 307.41 344.81 307.41 344.81 307.41 344.8 307.41"/>
      <rect class="cls-14" x="324.03" y="305.79" width="28.52" height="1.07"/>
      <polyline class="cls-14" points="349 310.71 348.27 309.93 352.14 306.33 348.27 302.73 349 301.95 353.71 306.33 349 310.71"/>
      <text class="cls-11" transform="translate(292.59 292.19)"><tspan x="0" y="0">you</tspan></text>
      <polygon class="cls-6" points="344.8 290.3 344.81 290.3 344.81 290.3 344.81 290.3 344.81 290.3 344.81 290.3 344.81 290.3 344.81 290.3 344.81 290.3 344.81 290.3 344.81 290.3 344.81 290.3 344.81 290.3 344.81 290.3 344.81 290.3 344.81 290.3 344.81 290.3 344.81 290.3 344.81 290.3 344.81 290.3 344.81 290.3 344.81 290.3 344.81 290.3 344.81 290.3 344.81 290.3 344.81 290.3 344.81 290.3 344.81 290.3 344.81 290.3 344.81 290.3 344.81 290.3 344.81 290.3 344.81 290.3 344.81 290.3 344.81 290.3 344.81 290.3 344.81 290.3 344.81 290.3 344.81 290.3 344.81 290.3 344.81 290.3 344.81 290.3 344.81 290.3 344.81 290.3 344.81 290.3 344.81 290.3 344.81 290.3 344.81 290.3 344.81 290.3 344.81 290.3 344.81 290.3 344.81 290.3 344.81 290.3 344.81 290.3 344.81 290.3 344.81 290.3 344.81 290.3 344.81 290.3 344.81 290.3 344.81 290.3 344.81 290.3 344.81 290.3 344.81 290.3 344.81 290.3 344.81 290.3 344.81 290.3 344.81 290.3 344.81 290.3 344.81 290.3 344.81 290.3 344.81 290.3 344.81 290.3 344.81 290.3 344.81 290.3 344.81 290.3 344.81 290.3 344.81 290.3 344.81 290.3 344.81 290.3 344.81 290.3 344.81 290.3 344.81 290.3 344.81 290.3 344.81 290.3 344.81 290.3 344.81 290.3 344.8 290.3"/>
      <rect class="cls-14" x="315.72" y="288.68" width="36.83" height="1.07"/>
      <polyline class="cls-14" points="349 293.6 348.27 292.81 352.14 289.22 348.27 285.62 349 284.83 353.71 289.22 349 293.6"/>
      <text class="cls-5" transform="translate(292.59 275.14)"><tspan x="0" y="0">that</tspan></text>
      <polygon class="cls-6" points="344.8 273.25 344.81 273.25 344.81 273.25 344.81 273.25 344.81 273.25 344.81 273.25 344.81 273.25 344.81 273.25 344.81 273.25 344.81 273.25 344.81 273.25 344.81 273.25 344.81 273.25 344.81 273.25 344.81 273.25 344.81 273.25 344.81 273.25 344.81 273.25 344.81 273.25 344.81 273.25 344.81 273.25 344.81 273.25 344.81 273.25 344.81 273.25 344.81 273.25 344.81 273.25 344.81 273.25 344.81 273.25 344.81 273.25 344.81 273.25 344.81 273.25 344.81 273.25 344.81 273.25 344.81 273.25 344.81 273.25 344.81 273.25 344.81 273.25 344.81 273.25 344.81 273.25 344.81 273.25 344.81 273.25 344.81 273.25 344.81 273.25 344.81 273.25 344.81 273.25 344.81 273.25 344.81 273.25 344.81 273.25 344.81 273.25 344.81 273.25 344.81 273.25 344.81 273.25 344.81 273.25 344.81 273.25 344.81 273.25 344.81 273.25 344.81 273.25 344.81 273.25 344.81 273.25 344.81 273.25 344.81 273.25 344.81 273.25 344.81 273.25 344.81 273.25 344.81 273.25 344.81 273.25 344.81 273.25 344.81 273.25 344.81 273.25 344.81 273.25 344.81 273.25 344.81 273.25 344.81 273.25 344.81 273.25 344.81 273.25 344.81 273.25 344.81 273.25 344.81 273.25 344.81 273.25 344.81 273.25 344.81 273.25 344.81 273.25 344.81 273.25 344.81 273.25 344.81 273.25 344.81 273.25 344.8 273.25"/>
      <rect class="cls-14" x="315.72" y="271.63" width="36.83" height="1.07"/>
      <polyline class="cls-14" points="349 276.55 348.27 275.77 352.14 272.17 348.27 268.57 349 267.79 353.71 272.17 349 276.55"/>
      <text class="cls-5" transform="translate(292.59 256.75)"><tspan x="0" y="0">anything</tspan></text>
      <path class="cls-13" d="M383.53,291.49c0-.14-.01-.28-.01-.43v-.23l.4-.09.1.63-.48.11"/>
      <polygon class="cls-6" points="349.1 306.75 349.1 306.75 349.1 306.75 349.1 306.75 349.1 306.75 349.1 306.75 349.1 306.75 349.1 306.75 349.1 306.75 349.1 306.75 349.1 306.75 349.1 306.75 349.1 306.75 349.1 306.75 349.1 306.75 349.1 306.75 349.1 306.75 349.1 306.75 349.1 306.75 349.1 306.75 349.1 306.75 349.1 306.75 349.1 306.75 349.1 306.75 349.1 306.75 349.1 306.75 349.1 306.75 349.1 306.75 349.1 306.75 349.1 306.75 349.1 306.75 349.1 306.75 349.1 306.75 349.1 306.75 349.1 306.75 349.1 306.75 349.1 306.75 349.1 306.75 349.1 306.75 349.1 306.75 349.1 306.75 349.1 306.75 349.1 306.75 349.1 306.75 349.1 306.75 349.1 306.75 349.1 306.75 349.1 306.75 349.1 306.75 349.1 306.75 349.1 306.75 349.1 306.75 349.1 306.75 349.1 306.75 349.1 306.75 349.1 306.75 349.1 306.75 349.1 306.75 349.1 306.75 349.1 306.75 349.1 306.75 349.1 306.75 349.1 306.75 349.1 306.75 349.1 306.75 349.1 306.75 349.1 306.75 349.1 306.75 349.1 306.75 349.1 306.75 349.1 306.75 349.1 306.75 349.1 306.75 349.1 306.75 349.1 306.75 349.1 306.75 349.1 306.75 349.1 306.75 349.1 306.75 349.1 306.75 349.1 306.75 349.1 306.75 349.1 306.75 349.1 306.75 349.1 306.75 349.1 306.75"/>
      <polygon class="cls-6" points="344.8 254.86 344.81 254.86 344.81 254.86 344.81 254.86 344.81 254.86 344.81 254.86 344.81 254.86 344.81 254.86 344.81 254.86 344.81 254.86 344.81 254.86 344.81 254.86 344.81 254.86 344.81 254.86 344.81 254.86 344.81 254.86 344.81 254.86 344.81 254.86 344.81 254.86 344.81 254.86 344.81 254.86 344.81 254.86 344.81 254.86 344.81 254.86 344.81 254.86 344.81 254.86 344.81 254.86 344.81 254.86 344.81 254.86 344.81 254.86 344.81 254.86 344.81 254.86 344.81 254.86 344.81 254.86 344.81 254.86 344.81 254.86 344.81 254.86 344.81 254.86 344.81 254.86 344.81 254.86 344.81 254.86 344.81 254.86 344.81 254.86 344.81 254.86 344.81 254.86 344.81 254.86 344.81 254.86 344.81 254.86 344.81 254.86 344.81 254.86 344.81 254.86 344.81 254.86 344.81 254.86 344.81 254.86 344.81 254.86 344.81 254.86 344.81 254.86 344.81 254.86 344.81 254.86 344.81 254.86 344.81 254.86 344.81 254.86 344.81 254.86 344.81 254.86 344.81 254.86 344.81 254.86 344.81 254.86 344.81 254.86 344.81 254.86 344.81 254.86 344.81 254.86 344.81 254.86 344.81 254.86 344.81 254.86 344.81 254.86 344.81 254.86 344.81 254.86 344.81 254.86 344.81 254.86 344.81 254.86 344.81 254.86 344.81 254.86 344.81 254.86 344.81 254.86 344.81 254.86 344.81 254.86 344.8 254.86"/>
      <rect class="cls-14" x="340.65" y="253.24" width="11.89" height="1.07"/>
      <polyline class="cls-14" points="349 258.16 348.27 257.37 352.14 253.78 348.27 250.18 349 249.39 353.71 253.78 349 258.16"/>
      <rect class="cls-14" x="325.31" y="236.64" width="26.17" height="1.07"/>
      <polyline class="cls-14" points="347.93 241.56 347.2 240.78 351.07 237.18 347.2 233.58 347.93 232.8 352.65 237.18 347.93 241.56"/>
      <rect class="cls-14" x="327.87" y="218.53" width="22.67" height="1.07"/>
      <polyline class="cls-14" points="347.4 223.45 346.75 222.67 350.17 219.07 346.75 215.47 347.4 214.69 351.57 219.07 347.4 223.45"/>
      <text class="cls-5" transform="translate(7.09 188.37)"><tspan x="0" y="0">[CLS]</tspan></text>
      <rect class="cls-14" x="43.1" y="184.65" width="21.39" height="1.07"/>
      <polyline class="cls-14" points="61.34 189.57 60.7 188.78 64.12 185.19 60.7 181.59 61.34 180.8 65.52 185.19 61.34 189.57"/>
      <path class="cls-9" d="M156.01,330.9v-141.3c0-7.63,2.36-13.81,5.27-13.81h5.33c2.91,0,5.27,6.18,5.27,13.81v141.3c0,7.63-2.36,13.8-5.27,13.8h-5.33c-2.91,0-5.27-6.18-5.27-13.8"/>
      <path class="cls-9" d="M126.74,330.9v-141.3c0-7.63,2.36-13.81,5.27-13.81h5.33c2.91,0,5.27,6.18,5.27,13.81v141.3c0,7.63-2.36,13.8-5.27,13.8h-5.33c-2.91,0-5.27-6.18-5.27-13.8"/>
      <path class="cls-14" d="M120.57,261.33h1.93v-1.07h-1.93v1.07ZM117.67,261.33h1.93v-1.07h-1.93v1.07ZM114.77,261.33h1.93v-1.07h-1.93v1.07Z"/>
      <rect class="cls-14" x="122.65" y="260.26" width="1.78" height="1.07"/>
      <polyline class="cls-14" points="121.48 265.18 120.87 264.39 124.09 260.79 120.87 257.2 121.48 256.41 125.4 260.79 121.48 265.18"/>
      <path class="cls-9" d="M97.91,330.9v-141.3c0-7.63,2.36-13.81,5.27-13.81h5.33c2.91,0,5.27,6.18,5.27,13.81v141.3c0,7.63-2.36,13.8-5.27,13.8h-5.33c-2.91,0-5.27-6.18-5.27-13.8"/>
      <rect class="cls-14" x="87.92" y="260.26" width="7.01" height="1.07"/>
      <polyline class="cls-14" points="91.98 265.18 91.37 264.39 94.59 260.79 91.37 257.2 91.98 256.41 95.89 260.79 91.98 265.18"/>
      <polyline class="cls-9" points="193.97 182.62 193.97 339.1 183.66 290.43 183.66 230.75 193.97 182.62"/>
      <polyline class="cls-9" points="73.59 182.62 73.59 339.1 83.9 290.43 83.9 230.75 73.59 182.62"/>
      <line class="cls-12" x1="36.52" y1="226.55" x2="36.52" y2="226.55"/>
      <text class="cls-5" transform="translate(7.09 204.35)"><tspan x="0" y="0">The</tspan></text>
      <text class="cls-5" transform="translate(6.74 222.45)"><tspan x="0" y="0">quick</tspan></text>
      <text class="cls-5" transform="translate(6.54 341.14)"><tspan x="0" y="0">dog</tspan></text>
      <rect class="cls-14" x="33.9" y="337.63" width="35.55" height="1.07"/>
      <polyline class="cls-14" points="62.95 342.55 62.21 341.76 66.09 338.16 62.21 334.57 62.95 333.78 67.66 338.16 62.95 342.55"/>
      <text class="cls-5" transform="translate(6.54 324.52)"><tspan x="0" y="0">lazy</tspan></text>
      <rect class="cls-14" x="32.87" y="321" width="33.63" height="1.07"/>
      <polyline class="cls-14" points="62.95 325.92 62.21 325.14 66.09 321.54 62.21 317.94 62.95 317.16 67.66 321.54 62.95 325.92"/>
      <text class="cls-5" transform="translate(6.54 308.22)"><tspan x="0" y="0">[MASK]</tspan></text>
      <rect class="cls-14" x="55.24" y="304.71" width="11.25" height="1.07"/>
      <polyline class="cls-14" points="62.95 309.63 62.21 308.85 66.09 305.25 62.21 301.65 62.95 300.87 67.66 305.25 62.95 309.63"/>
      <text class="cls-5" transform="translate(6.54 291.41)"><tspan x="0" y="0">over</tspan></text>
      <polygon class="cls-6" points="58.75 289.51 58.75 289.51 58.75 289.51 58.75 289.51 58.75 289.51 58.75 289.51 58.75 289.51 58.75 289.51 58.75 289.51 58.75 289.51 58.75 289.51 58.75 289.51 58.75 289.51 58.75 289.51 58.75 289.51 58.75 289.51 58.75 289.51 58.75 289.51 58.75 289.51 58.75 289.51 58.75 289.51 58.75 289.51 58.75 289.51 58.75 289.51 58.75 289.51 58.75 289.51 58.75 289.51 58.75 289.51 58.75 289.51 58.75 289.51 58.75 289.51 58.75 289.51 58.75 289.51 58.75 289.51 58.75 289.51 58.75 289.51 58.75 289.51 58.75 289.51 58.75 289.51 58.75 289.51 58.75 289.51 58.75 289.51 58.75 289.51 58.75 289.51 58.75 289.51 58.75 289.51 58.75 289.51 58.75 289.51 58.75 289.51 58.75 289.51 58.75 289.51 58.75 289.51 58.75 289.51 58.75 289.51 58.75 289.51 58.75 289.51 58.75 289.51 58.75 289.51 58.75 289.51 58.75 289.51 58.75 289.51 58.75 289.51 58.75 289.51 58.75 289.51 58.75 289.51 58.75 289.51 58.75 289.51 58.75 289.51 58.75 289.51 58.75 289.51 58.75 289.51 58.75 289.51 58.75 289.51 58.75 289.51 58.75 289.51 58.75 289.51 58.75 289.51 58.75 289.51 58.75 289.51 58.75 289.51 58.75 289.51 58.75 289.51 58.75 289.51 58.75 289.51 58.75 289.51 58.75 289.51 58.75 289.51"/>
      <rect class="cls-14" x="34.15" y="287.89" width="32.35" height="1.07"/>
      <polyline class="cls-14" points="62.95 292.81 62.21 292.03 66.09 288.43 62.21 284.83 62.95 284.05 67.66 288.43 62.95 292.81"/>
      <text class="cls-5" transform="translate(6.54 274.29)"><tspan x="0" y="0">[MASK]</tspan></text>
      <polygon class="cls-6" points="58.75 272.4 58.75 272.4 58.75 272.4 58.75 272.4 58.75 272.4 58.75 272.4 58.75 272.4 58.75 272.4 58.75 272.4 58.75 272.4 58.75 272.4 58.75 272.4 58.75 272.4 58.75 272.4 58.75 272.4 58.75 272.4 58.75 272.4 58.75 272.4 58.75 272.4 58.75 272.4 58.75 272.4 58.75 272.4 58.75 272.4 58.75 272.4 58.75 272.4 58.75 272.4 58.75 272.4 58.75 272.4 58.75 272.4 58.75 272.4 58.75 272.4 58.75 272.4 58.75 272.4 58.75 272.4 58.75 272.4 58.75 272.4 58.75 272.4 58.75 272.4 58.75 272.4 58.75 272.4 58.75 272.4 58.75 272.4 58.75 272.4 58.75 272.4 58.75 272.4 58.75 272.4 58.75 272.4 58.75 272.4 58.75 272.4 58.75 272.4 58.75 272.4 58.75 272.4 58.75 272.4 58.75 272.4 58.75 272.4 58.75 272.4 58.75 272.4 58.75 272.4 58.75 272.4 58.75 272.4 58.75 272.4 58.75 272.4 58.75 272.4 58.75 272.4 58.75 272.4 58.75 272.4 58.75 272.4 58.75 272.4 58.75 272.4 58.75 272.4 58.75 272.4 58.75 272.4 58.75 272.4 58.75 272.4 58.75 272.4 58.75 272.4 58.75 272.4 58.75 272.4 58.75 272.4 58.75 272.4 58.75 272.4 58.75 272.4 58.75 272.4 58.75 272.4 58.75 272.4 58.75 272.4 58.75 272.4"/>
      <rect class="cls-14" x="55.46" y="270.78" width="11.04" height="1.07"/>
      <polyline class="cls-14" points="62.95 275.7 62.21 274.91 66.09 271.32 62.21 267.72 62.95 266.93 67.66 271.32 62.95 275.7"/>
      <text class="cls-5" transform="translate(6.54 257.24)"><tspan x="0" y="0">fox</tspan></text>
      <polygon class="cls-6" points="58.75 255.35 58.75 255.35 58.75 255.35 58.75 255.35 58.75 255.35 58.75 255.35 58.75 255.35 58.75 255.35 58.75 255.35 58.75 255.35 58.75 255.35 58.75 255.35 58.75 255.35 58.75 255.35 58.75 255.35 58.75 255.35 58.75 255.35 58.75 255.35 58.75 255.35 58.75 255.35 58.75 255.35 58.75 255.35 58.75 255.35 58.75 255.35 58.75 255.35 58.75 255.35 58.75 255.35 58.75 255.35 58.75 255.35 58.75 255.35 58.75 255.35 58.75 255.35 58.75 255.35 58.75 255.35 58.75 255.35 58.75 255.35 58.75 255.35 58.75 255.35 58.75 255.35 58.75 255.35 58.75 255.35 58.75 255.35 58.75 255.35 58.75 255.35 58.75 255.35 58.75 255.35 58.75 255.35 58.75 255.35 58.75 255.35 58.75 255.35 58.75 255.35 58.75 255.35 58.75 255.35 58.75 255.35 58.75 255.35 58.75 255.35 58.75 255.35 58.75 255.35 58.75 255.35 58.75 255.35 58.75 255.35 58.75 255.35 58.75 255.35 58.75 255.35 58.75 255.35 58.75 255.35 58.75 255.35 58.75 255.35 58.75 255.35 58.75 255.35 58.75 255.35 58.75 255.35 58.75 255.35 58.75 255.35 58.75 255.35 58.75 255.35 58.75 255.35 58.75 255.35 58.75 255.35 58.75 255.35 58.75 255.35 58.75 255.35 58.75 255.35 58.75 255.35 58.75 255.35 58.75 255.35 58.75 255.35"/>
      <rect class="cls-14" x="29.67" y="253.73" width="36.83" height="1.07"/>
      <polyline class="cls-14" points="62.95 258.65 62.21 257.87 66.09 254.27 62.21 250.67 62.95 249.89 67.66 254.27 62.95 258.65"/>
      <text class="cls-5" transform="translate(6.54 238.85)"><tspan x="0" y="0">brown</tspan></text>
      <path class="cls-13" d="M97.48,291.49c0-.14-.01-.28-.01-.43v-.23l.4-.09.1.63-.48.11"/>
      <path class="cls-14" d="M149.8,261.33h1.93v-1.07h-1.93v1.07ZM146.9,261.33h1.93v-1.07h-1.93v1.07ZM144,261.33h1.93v-1.07h-1.93v1.07Z"/>
      <rect class="cls-14" x="151.88" y="260.26" width="1.78" height="1.07"/>
      <polyline class="cls-14" points="150.71 265.18 150.11 264.39 153.32 260.79 150.11 257.2 150.71 256.41 154.63 260.79 150.71 265.18"/>
      <polygon class="cls-6" points="63.04 306.75 63.04 306.75 63.04 306.75 63.04 306.75 63.04 306.75 63.04 306.75 63.04 306.75 63.04 306.75 63.04 306.75 63.04 306.75 63.04 306.75 63.04 306.75 63.04 306.75 63.04 306.75 63.04 306.75 63.04 306.75 63.04 306.75 63.04 306.75 63.04 306.75 63.04 306.75 63.04 306.75 63.04 306.75 63.04 306.75 63.04 306.75 63.04 306.75 63.04 306.75 63.04 306.75 63.04 306.75 63.04 306.75 63.04 306.75 63.04 306.75 63.04 306.75 63.04 306.75 63.04 306.75 63.04 306.75 63.04 306.75 63.04 306.75 63.04 306.75 63.04 306.75 63.04 306.75 63.04 306.75 63.04 306.75 63.04 306.75 63.04 306.75 63.04 306.75 63.04 306.75 63.04 306.75 63.04 306.75 63.04 306.75 63.04 306.75 63.04 306.75 63.04 306.75 63.04 306.75 63.04 306.75 63.04 306.75 63.04 306.75 63.04 306.75 63.04 306.75 63.04 306.75 63.04 306.75 63.04 306.75 63.04 306.75 63.04 306.75 63.04 306.75 63.04 306.75 63.04 306.75 63.04 306.75 63.04 306.75 63.04 306.75 63.04 306.75 63.04 306.75 63.04 306.75 63.04 306.75 63.04 306.75 63.04 306.75 63.04 306.75 63.04 306.75 63.04 306.75 63.04 306.75 63.04 306.75 63.04 306.75 63.04 306.75 63.04 306.75 63.04 306.75 63.04 306.75 63.04 306.75"/>
      <polygon class="cls-6" points="58.75 236.96 58.75 236.96 58.75 236.96 58.75 236.96 58.75 236.96 58.75 236.96 58.75 236.96 58.75 236.96 58.75 236.96 58.75 236.96 58.75 236.96 58.75 236.96 58.75 236.96 58.75 236.96 58.75 236.96 58.75 236.96 58.75 236.96 58.75 236.96 58.75 236.96 58.75 236.96 58.75 236.96 58.75 236.96 58.75 236.96 58.75 236.96 58.75 236.96 58.75 236.96 58.75 236.96 58.75 236.96 58.75 236.96 58.75 236.96 58.75 236.96 58.75 236.96 58.75 236.96 58.75 236.96 58.75 236.96 58.75 236.96 58.75 236.96 58.75 236.96 58.75 236.96 58.75 236.96 58.75 236.96 58.75 236.96 58.75 236.96 58.75 236.96 58.75 236.96 58.75 236.96 58.75 236.96 58.75 236.96 58.75 236.96 58.75 236.96 58.75 236.96 58.75 236.96 58.75 236.96 58.75 236.96 58.75 236.96 58.75 236.96 58.75 236.96 58.75 236.96 58.75 236.96 58.75 236.96 58.75 236.96 58.75 236.96 58.75 236.96 58.75 236.96 58.75 236.96 58.75 236.96 58.75 236.96 58.75 236.96 58.75 236.96 58.75 236.96 58.75 236.96 58.75 236.96 58.75 236.96 58.75 236.96 58.75 236.96 58.75 236.96 58.75 236.96 58.75 236.96 58.75 236.96 58.75 236.96 58.75 236.96 58.75 236.96 58.75 236.96 58.75 236.96 58.75 236.96 58.75 236.96 58.75 236.96"/>
      <rect class="cls-14" x="173.71" y="260.26" width="7.01" height="1.07"/>
      <polyline class="cls-14" points="177.76 265.18 177.15 264.39 180.37 260.79 177.15 257.2 177.76 256.41 181.68 260.79 177.76 265.18"/>
      <polygon class="cls-7" points="191.97 262.41 191.97 262.41 191.97 262.41 191.97 262.41 191.97 262.41 191.97 262.41 191.97 262.41 191.97 262.41 191.97 262.41 191.97 262.41 191.97 262.41 191.97 262.41 191.97 262.41 191.97 262.41 191.97 262.41 191.97 262.41 191.97 262.41 191.97 262.41 191.97 262.41 191.97 262.41 191.97 262.41 191.97 262.41 191.97 262.41 191.97 262.41 191.97 262.41 191.97 262.41 191.97 262.41 191.97 262.41 191.97 262.41 191.97 262.41 191.97 262.41 191.97 262.41 191.97 262.41 191.97 262.41 191.97 262.41 191.97 262.41 191.97 262.41 191.97 262.41 191.97 262.41 191.97 262.41 191.97 262.41 191.97 262.41 191.97 262.41 191.97 262.41 191.97 262.41 191.97 262.41 191.97 262.41 191.97 262.41 191.97 262.41 191.97 262.41 191.97 262.41 191.97 262.41 191.97 262.41 191.97 262.41 191.97 262.41 191.97 262.41 191.97 262.41 191.97 262.41 191.97 262.41 191.97 262.41 191.97 262.41 191.97 262.41 191.97 262.41 191.97 262.41 191.97 262.41 191.97 262.41 191.97 262.41 191.97 262.41 191.97 262.41 191.97 262.41 191.97 262.41 191.97 262.41 191.97 262.41 191.97 262.41 191.97 262.41 191.97 262.41 191.97 262.41 191.97 262.41 191.97 262.41 191.97 262.41 191.97 262.41 191.97 262.41 191.97 262.41 191.97 262.41 191.97 262.41 191.97 262.41 191.97 262.41"/>
      <polygon class="cls-6" points="191.97 241.48 191.97 241.48 191.97 241.48 191.97 241.48 191.97 241.48 191.97 241.48 191.97 241.48 191.97 241.48 191.97 241.48 191.97 241.48 191.97 241.48 191.97 241.48 191.97 241.48 191.97 241.48 191.97 241.48 191.97 241.48 191.97 241.48 191.97 241.48 191.97 241.48 191.97 241.48 191.97 241.48 191.97 241.48 191.97 241.48 191.97 241.48 191.97 241.48 191.97 241.48 191.97 241.48 191.97 241.48 191.97 241.48 191.97 241.48 191.97 241.48 191.97 241.48 191.97 241.48 191.97 241.48 191.97 241.48 191.97 241.48 191.97 241.48 191.97 241.48 191.97 241.48 191.97 241.48 191.97 241.48 191.97 241.48 191.97 241.48 191.97 241.48 191.97 241.48 191.97 241.48 191.97 241.48 191.97 241.48 191.97 241.48 191.97 241.48 191.97 241.48 191.97 241.48 191.97 241.48 191.97 241.48 191.97 241.48 191.97 241.48 191.97 241.48 191.97 241.48 191.97 241.48 191.97 241.48 191.97 241.48 191.97 241.48 191.97 241.48 191.97 241.48 191.97 241.48 191.97 241.48 191.97 241.48 191.97 241.48 191.97 241.48 191.97 241.48 191.97 241.48 191.97 241.48 191.97 241.48 191.97 241.48 191.97 241.48 191.97 241.48 191.97 241.48 191.97 241.48 191.97 241.48 191.97 241.48 191.97 241.48 191.97 241.48 191.97 241.48 191.97 241.48 191.97 241.48 191.97 241.48 191.97 241.48"/>
      <rect class="cls-14" x="43.1" y="235.34" width="23.4" height="1.07"/>
      <polyline class="cls-14" points="62.95 240.26 62.21 239.47 66.09 235.88 62.21 232.28 62.95 231.49 67.66 235.88 62.95 240.26"/>
      <rect class="cls-14" x="39.26" y="218.74" width="26.17" height="1.07"/>
      <polyline class="cls-14" points="61.88 223.66 61.15 222.88 65.02 219.28 61.15 215.68 61.88 214.9 66.6 219.28 61.88 223.66"/>
      <rect class="cls-14" x="32.87" y="200.63" width="31.62" height="1.07"/>
      <polyline class="cls-14" points="61.34 205.55 60.7 204.76 64.12 201.17 60.7 197.57 61.34 196.79 65.52 201.17 61.34 205.55"/>
      <rect class="cls-8" x="408.1" y="195.28" width="26.21" height="15.34"/>
      <g>
        <polyline class="cls-10" points="437.39 203.62 445.66 203.62 445.66 260.79 449.12 260.79"/>
        <path class="cls-14" d="M456.37,260.79c-3.41,1.26-7.64,3.42-10.26,5.71l2.06-5.71-2.06-5.71c2.62,2.29,6.85,4.44,10.26,5.71Z"/>
      </g>
      <text class="cls-3" transform="translate(457.57 257.03)"><tspan x="0" y="0">Wrong</tspan><tspan x="1.86" y="16.11">Order</tspan></text>
      <text class="cls-2" transform="translate(269.23 262.58)"><tspan x="0" y="0">+</tspan></text>
      <text class="cls-1" transform="translate(299.81 170.65)"><tspan x="0" y="0">Word-Order Error Detection</tspan></text>
      <text class="cls-1" transform="translate(41.87 170.65)"><tspan x="0" y="0">Masked Language Modeling</tspan></text>
    </g>
  </g>
</svg>